<svg width="50" height="50" viewBox="0 0 50 50" fill="none" xmlns="http://www.w3.org/2000/svg">
<g clip-path="url(#clip0_401_3300)">
<path d="M43.0436 40.3675C22.8037 50 10.2426 41.9408 2.20185 37.0458C1.70429 36.7373 0.858611 37.1179 1.59235 37.9607C4.27113 41.2088 13.0501 49.0376 24.5091 49.0376C35.9761 49.0376 42.7978 42.7807 43.6512 41.6892C44.4988 40.607 43.9001 40.01 43.0434 40.3675H43.0436ZM48.728 37.2283C48.1844 36.5205 45.423 36.3886 43.6851 36.6021C41.9445 36.8094 39.3318 37.8732 39.559 38.5119C39.6755 38.7512 39.9135 38.6438 41.1092 38.5363C42.3082 38.4167 45.667 37.9928 46.3669 38.9077C47.0701 39.829 45.2956 44.2176 44.9716 44.9254C44.6584 45.6331 45.0912 45.8157 45.6793 45.3443C46.2594 44.8731 47.3095 43.6527 48.0142 41.9258C48.7141 40.1894 49.1409 37.7672 48.7278 37.2283H48.728Z" fill="#FF9900"/>
<path fill-rule="evenodd" clip-rule="evenodd" d="M29.4346 20.7125C29.4346 23.2399 29.4984 25.3476 28.221 27.5921C27.1899 29.4172 25.5566 30.5394 23.7318 30.5394C21.2407 30.5394 19.79 28.6415 19.79 25.8404C19.79 20.3109 24.7444 19.3073 29.4346 19.3073V20.7125ZM35.9767 36.5251C35.5478 36.9082 34.9274 36.9357 34.4438 36.6801C32.2905 34.8918 31.9072 34.0616 30.7211 32.3552C27.1626 35.9868 24.6442 37.0725 20.0273 37.0725C14.5709 37.0725 10.3188 33.7056 10.3188 26.9626C10.3188 21.698 13.175 18.112 17.2351 16.3602C20.7572 14.8089 25.6753 14.5352 29.4346 14.1065V13.267C29.4346 11.7249 29.5531 9.90003 28.6499 8.56794C27.8559 7.37261 26.3413 6.87986 25.0091 6.87986C22.5365 6.87986 20.3283 8.14809 19.79 10.7759C19.6803 11.36 19.2516 11.9349 18.6677 11.9622L12.3718 11.2871C11.8427 11.1683 11.2588 10.7396 11.4047 9.92734C12.8555 2.29951 19.7442 0 25.9122 0C29.0693 0 33.1935 0.839523 35.6846 3.23019C38.8417 6.17728 38.5405 10.1099 38.5405 14.3892V24.4991C38.5405 27.5375 39.7997 28.8696 40.9858 30.5121C41.4054 31.096 41.4968 31.7988 40.9675 32.2365C39.6445 33.3405 37.2903 35.3936 35.9948 36.5434L35.9765 36.5251" fill="white"/>
<path d="M43.0436 40.3675C22.8037 50 10.2426 41.9408 2.20185 37.0458C1.70429 36.7373 0.858611 37.1179 1.59235 37.9607C4.27113 41.2088 13.0501 49.0376 24.5091 49.0376C35.9761 49.0376 42.7978 42.7807 43.6512 41.6892C44.4988 40.607 43.9001 40.01 43.0434 40.3675H43.0436ZM48.728 37.2283C48.1844 36.5205 45.423 36.3886 43.6851 36.6021C41.9445 36.8094 39.3318 37.8732 39.559 38.5119C39.6755 38.7512 39.9135 38.6438 41.1092 38.5363C42.3082 38.4167 45.667 37.9928 46.3669 38.9077C47.0701 39.829 45.2956 44.2176 44.9716 44.9254C44.6584 45.6331 45.0912 45.8157 45.6793 45.3443C46.2594 44.8731 47.3095 43.6527 48.0142 41.9258C48.7141 40.1894 49.1409 37.7672 48.7278 37.2283H48.728Z" fill="#FF9900"/>
<path fill-rule="evenodd" clip-rule="evenodd" d="M29.4346 20.7125C29.4346 23.2399 29.4984 25.3476 28.221 27.5921C27.1899 29.4172 25.5566 30.5394 23.7318 30.5394C21.2407 30.5394 19.79 28.6415 19.79 25.8404C19.79 20.3109 24.7444 19.3073 29.4346 19.3073V20.7125ZM35.9767 36.5251C35.5478 36.9082 34.9274 36.9357 34.4438 36.6801C32.2905 34.8918 31.9072 34.0616 30.7211 32.3552C27.1626 35.9868 24.6442 37.0725 20.0273 37.0725C14.5709 37.0725 10.3188 33.7056 10.3188 26.9626C10.3188 21.698 13.175 18.112 17.2351 16.3602C20.7572 14.8089 25.6753 14.5352 29.4346 14.1065V13.267C29.4346 11.7249 29.5531 9.90003 28.6499 8.56794C27.8559 7.37261 26.3413 6.87986 25.0091 6.87986C22.5365 6.87986 20.3283 8.14809 19.79 10.7759C19.6803 11.36 19.2516 11.9349 18.6677 11.9622L12.3718 11.2871C11.8427 11.1683 11.2588 10.7396 11.4047 9.92734C12.8555 2.29951 19.7442 0 25.9122 0C29.0693 0 33.1935 0.839523 35.6846 3.23019C38.8417 6.17728 38.5405 10.1099 38.5405 14.3892V24.4991C38.5405 27.5375 39.7997 28.8696 40.9858 30.5121C41.4054 31.096 41.4968 31.7988 40.9675 32.2365C39.6445 33.3405 37.2903 35.3936 35.9948 36.5434L35.9765 36.5251" fill="white"/>
</g>
<defs>
<clipPath id="clip0_401_3300">
<rect width="50" height="50" fill="white"/>
</clipPath>
</defs>
</svg>
