<svg width="50" height="50" viewBox="0 0 50 50" fill="none" xmlns="http://www.w3.org/2000/svg">
<g clip-path="url(#clip0_401_2011)">
<path d="M0.577148 0.38501H49.6156V49.4235H0.577148V0.38501Z" fill="black"/>
<path d="M4.80754 40.1924H23.1729V43.2693H4.80754V40.1924ZM4.61523 13.2693L6.05754 11.9232C6.44216 12.4039 6.82677 12.6924 7.30754 12.6924C7.88447 12.6924 8.17293 12.3078 8.17293 11.5385V6.44238H10.3844V11.5385C10.3844 12.5001 10.096 13.2693 9.61519 13.7501C9.13447 14.2308 8.36523 14.5193 7.4037 14.5193C5.96139 14.6155 5.19216 14.0385 4.61523 13.2693ZM10.8652 6.53853H17.3075V8.36546H13.0767V9.61546H16.9229V11.3462H13.0767V12.5962H17.4036V14.5193H10.9614L10.8652 6.53853ZM20.1921 8.4616H17.7883V6.53853H24.8075V8.4616H22.4036V14.5193H20.1921V8.4616ZM4.80754 16.3462H8.94216C9.90365 16.3462 10.6729 16.6347 11.1536 17.0193C11.4421 17.3078 11.6344 17.7885 11.6344 18.3655C11.6344 19.327 11.1536 19.8078 10.3844 20.1924C11.346 20.4808 11.923 21.0578 11.923 22.1155C11.923 23.4616 10.769 24.327 8.94216 24.327H4.80754V16.3462ZM9.42293 18.8462C9.42293 18.3655 9.03831 18.1732 8.46139 18.1732H7.01908V19.6155H8.36524C9.03831 19.5193 9.42293 19.327 9.42293 18.8462ZM8.6537 21.1539H6.92293V22.5962H8.6537C9.32677 22.5962 9.71134 22.3078 9.71134 21.827C9.71134 21.3462 9.32677 21.1539 8.6537 21.1539ZM12.3075 16.3462H16.0576C17.3076 16.3462 18.0768 16.6347 18.6537 17.2116C19.1345 17.6924 19.3267 18.2693 19.3267 19.0385C19.3267 20.2885 18.6537 21.0578 17.6922 21.5385L19.6153 24.327H17.1152L15.4806 21.9232H14.519V24.327H12.3075V16.3462ZM15.9613 20.1924C16.7306 20.1924 17.1152 19.8078 17.1152 19.2308C17.1152 18.5578 16.6344 18.2693 15.9613 18.2693H14.519V20.1924H15.9613Z" fill="white"/>
<path d="M21.9235 16.3466H24.0388L27.4042 24.4236H25.0004L24.4235 22.9813H21.3465L20.7696 24.4236H18.4619L21.9235 16.3466ZM23.8465 21.1543L22.9811 18.9428L22.1158 21.1543H23.8465ZM27.6927 16.3466H29.9042V24.3274H27.6927V16.3466ZM30.4811 16.3466H32.5004L35.7696 20.5774V16.3466H37.9811V24.3274H36.0581L32.6927 20.0005V24.4236H30.4811V16.3466ZM38.1735 23.1736L39.4235 21.7313C40.1927 22.4043 41.0581 22.6928 42.0196 22.6928C42.5965 22.6928 42.9811 22.5005 42.9811 22.1159C42.9811 21.7313 42.6927 21.6351 41.635 21.3466C39.9042 20.962 38.6542 20.4813 38.6542 18.8466C38.6542 17.4043 39.8081 16.2505 41.7311 16.2505C43.0773 16.2505 44.135 16.6351 45.0004 17.3082L43.8465 18.8466C43.0773 18.3659 42.3081 18.0774 41.635 18.0774C41.0581 18.0774 40.8658 18.2697 40.8658 18.5582C40.8658 18.9428 41.1542 19.039 42.2119 19.3274C44.0388 19.712 45.1927 20.2889 45.1927 21.8274C45.1927 23.462 43.9427 24.4236 41.9235 24.4236C40.4811 24.5197 39.135 24.039 38.1735 23.1736Z" fill="white"/>
</g>
<defs>
<clipPath id="clip0_401_2011">
<rect width="50" height="50" fill="white"/>
</clipPath>
</defs>
</svg>
