<svg width="50" height="50" viewBox="0 0 50 50" fill="none" xmlns="http://www.w3.org/2000/svg">
<g clip-path="url(#clip0_401_1900)">
<path d="M0.314941 29.218L20.782 49.6851C10.3302 47.9184 2.08166 39.6699 0.314941 29.218Z" fill="#5E6AD2"/>
<path d="M0 23.6617L26.3384 50.0001C27.9048 49.9164 29.433 49.6886 30.9098 49.3298L0.670305 19.0903C0.311468 20.5672 0.0836953 22.0953 0 23.6617Z" fill="#5E6AD2"/>
<path d="M1.98096 15.1595L34.8402 48.0188C36.037 47.5051 37.1857 46.9008 38.2776 46.2145L3.78525 11.7222C3.09891 12.814 2.4946 13.9627 1.98096 15.1595Z" fill="#5E6AD2"/>
<path d="M6.01172 8.7068C10.5998 3.37573 17.3966 0 24.9819 0C38.7991 0 50 11.2009 50 25.018C50 32.6034 46.6243 39.4002 41.2932 43.9883L6.01172 8.7068Z" fill="#5E6AD2"/>
</g>
<defs>
<clipPath id="clip0_401_1900">
<rect width="50" height="50" fill="white"/>
</clipPath>
</defs>
</svg>
