<svg width="50" height="50" viewBox="0 0 50 50" fill="none" xmlns="http://www.w3.org/2000/svg">
<g clip-path="url(#clip0_401_1895)">
<path d="M42.488 41.821H35.2153V30.4316C35.2153 27.7157 35.1668 24.2195 31.4327 24.2195C27.6448 24.2195 27.0653 27.1786 27.0653 30.2339V41.8203H19.7925V18.399H26.7743V21.5998H26.8721C27.5708 20.4052 28.5805 19.4224 29.7935 18.7562C31.0066 18.0899 32.3777 17.7652 33.7607 17.8165C41.1319 17.8165 42.491 22.665 42.491 28.9725L42.488 41.821ZM11.5865 15.1975C10.7518 15.1977 9.93571 14.9503 9.24162 14.4867C8.54745 14.0231 8.00639 13.364 7.68684 12.5929C7.36724 11.8218 7.28351 10.9732 7.44622 10.1545C7.60889 9.33579 8.01071 8.58367 8.60086 7.99329C9.19101 7.40297 9.9429 7.00088 10.7616 6.83789C11.5803 6.67489 12.4289 6.75832 13.2001 7.07762C13.9714 7.39691 14.6306 7.93776 15.0945 8.6317C15.5584 9.32564 15.806 10.1416 15.8062 10.9763C15.8062 11.5306 15.6972 12.0794 15.4852 12.5915C15.2732 13.1036 14.9624 13.5689 14.5706 13.9609C14.1787 14.3528 13.7135 14.6638 13.2015 14.876C12.6895 15.0882 12.1407 15.1975 11.5865 15.1975ZM15.2228 41.821H7.94253V18.399H15.2228V41.821ZM46.1137 0.00285456H4.28799C3.33866 -0.0078586 2.42391 0.35876 1.74475 1.02215C1.0656 1.68553 0.677602 2.59142 0.666016 3.54073V45.54C0.677205 46.4897 1.06497 47.3962 1.74409 48.0603C2.42323 48.7244 3.33819 49.0918 4.28799 49.0816H46.1137C47.0654 49.0936 47.9829 48.7273 48.6647 48.0632C49.3465 47.3992 49.7369 46.4916 49.7501 45.54V3.5377C49.7365 2.5865 49.3459 1.67959 48.6641 1.01622C47.9822 0.352851 47.0649 -0.0127209 46.1137 -0.000175744V0.00285456Z" fill="#0A66C2"/>
</g>
<defs>
<clipPath id="clip0_401_1895">
<rect width="50" height="49.2424" fill="white"/>
</clipPath>
</defs>
</svg>
