<svg width="50" height="36" viewBox="0 0 50 36" fill="none" xmlns="http://www.w3.org/2000/svg">
<g clip-path="url(#clip0_401_1795)">
<path d="M48.6962 34.8903H40.0508C39.7342 34.8903 39.4304 34.7646 39.2067 34.5406C38.9827 34.3166 38.8569 34.013 38.8569 33.6965V1.7857C38.859 1.47014 38.9855 1.16818 39.2092 0.945526C39.4327 0.722873 39.7352 0.59759 40.0508 0.596927H48.6937C49.0097 0.596238 49.3133 0.721008 49.5378 0.943891C49.762 1.16675 49.8888 1.4695 49.8901 1.7857V33.6965C49.8904 33.8533 49.8597 34.0087 49.7998 34.1536C49.7401 34.2988 49.6521 34.4304 49.5411 34.5413C49.4301 34.6523 49.2985 34.7403 49.1536 34.8C49.0085 34.86 48.8531 34.8906 48.6962 34.8903Z" fill="url(#paint0_linear_401_1795)"/>
<path d="M8.62741 35.0103L0.90548 31.1225C0.622776 30.9804 0.40809 30.7317 0.308595 30.4312C0.209098 30.1309 0.232936 29.8034 0.374868 29.5205L14.7014 1.02047C14.8436 0.737767 15.0922 0.523073 15.3926 0.423583C15.693 0.324094 16.0206 0.34792 16.3034 0.489859L24.0279 4.36996C24.3106 4.51216 24.5253 4.76075 24.6248 5.06116C24.7243 5.36155 24.7005 5.68917 24.5585 5.972L10.2294 34.4797C10.0873 34.7623 9.83866 34.9771 9.53825 35.0766C9.23787 35.1761 8.91024 35.1521 8.62741 35.0103Z" fill="url(#paint1_linear_401_1795)"/>
<path d="M31.4363 34.3674L37.5587 3.29348C37.6197 2.98407 37.5556 2.6631 37.3806 2.4007C37.2056 2.13831 36.934 1.95578 36.625 1.89297L28.1531 0.181238C27.999 0.150396 27.8403 0.150192 27.6863 0.180677C27.5319 0.211161 27.3852 0.271721 27.2546 0.35889C27.1238 0.446084 27.0115 0.558178 26.924 0.688765C26.8365 0.819352 26.7758 0.965905 26.7449 1.12001L20.6225 32.1964C20.5616 32.5064 20.626 32.8276 20.8015 33.0901C20.9769 33.3526 21.2492 33.535 21.5587 33.597L30.0281 35.3061C30.1822 35.3378 30.3411 35.3385 30.4954 35.3084C30.65 35.2781 30.797 35.2176 30.9278 35.1304C31.0587 35.0431 31.1712 34.9306 31.2584 34.7998C31.3457 34.6689 31.4062 34.522 31.4363 34.3674Z" fill="url(#paint2_linear_401_1795)"/>
</g>
<defs>
<linearGradient id="paint0_linear_401_1795" x1="28.3722" y1="23.6454" x2="51.6962" y2="15.0459" gradientUnits="userSpaceOnUse">
<stop offset="0.02" stop-color="#B02DE9"/>
<stop offset="0.8" stop-color="#6D00CC"/>
</linearGradient>
<linearGradient id="paint1_linear_401_1795" x1="7.90037" y1="19.722" x2="32.9743" y2="8.88017" gradientUnits="userSpaceOnUse">
<stop stop-color="#FF00FF"/>
<stop offset="0.18" stop-color="#E80DF9"/>
<stop offset="0.54" stop-color="#C024ED"/>
<stop offset="0.73" stop-color="#B02DE9"/>
</linearGradient>
<linearGradient id="paint2_linear_401_1795" x1="2.05104" y1="27.7015" x2="53.449" y2="8.77817" gradientUnits="userSpaceOnUse">
<stop offset="0.02" stop-color="#FF00FF"/>
<stop offset="0.09" stop-color="#E80DF9"/>
<stop offset="0.23" stop-color="#C024ED"/>
<stop offset="0.3" stop-color="#B02DE9"/>
<stop offset="0.42" stop-color="#A42BE3"/>
<stop offset="0.63" stop-color="#8527D5"/>
<stop offset="0.85" stop-color="#6021C3"/>
</linearGradient>
<clipPath id="clip0_401_1795">
<rect width="50" height="35.4592" fill="white"/>
</clipPath>
</defs>
</svg>
