<svg width="50" height="50" viewBox="0 0 50 50" fill="none" xmlns="http://www.w3.org/2000/svg">
<g clip-path="url(#clip0_401_688)">
<path d="M24.9987 0.0825195C11.2341 0.0825195 0.0751953 11.2411 0.0751953 25.0057C0.0751953 38.7709 11.2341 49.9286 24.9987 49.9286C38.7648 49.9286 49.9225 38.7709 49.9225 25.0057C49.9225 11.242 38.7648 0.08371 24.9984 0.08371L24.9987 0.0825195ZM36.4285 36.0289C35.982 36.7611 35.0237 36.9932 34.2916 36.5438C28.4398 32.9694 21.0731 32.1599 12.3975 34.142C11.5615 34.3325 10.7282 33.8087 10.5377 32.9724C10.3463 32.1361 10.8681 31.3028 11.7061 31.1123C21.2002 28.9423 29.3439 29.8772 35.9136 33.892C36.6457 34.3414 36.8779 35.2968 36.4285 36.0289ZM39.4791 29.2417C38.9166 30.1569 37.7201 30.4456 36.8064 29.8831C30.107 25.7644 19.8948 24.5718 11.9707 26.9772C10.9431 27.2876 9.85764 26.7084 9.54573 25.6825C9.23621 24.6548 9.81567 23.5715 10.8416 23.259C19.8931 20.5126 31.1457 21.8429 38.8392 26.5706C39.7529 27.1331 40.0416 28.3295 39.4791 29.242V29.2417ZM39.741 22.1751C31.7082 17.4039 18.4553 16.9653 10.7859 19.2929C9.55436 19.6664 8.25198 18.9712 7.87877 17.7397C7.50555 16.5075 8.2002 15.206 9.43264 14.8316C18.2365 12.159 32.8719 12.6754 42.1201 18.1656C43.2303 18.823 43.5933 20.2536 42.9356 21.3599C42.2808 22.4676 40.8463 22.8328 39.7422 22.1751H39.741Z" fill="#1ED760"/>
</g>
<defs>
<clipPath id="clip0_401_688">
<rect width="50" height="50" fill="white"/>
</clipPath>
</defs>
</svg>
