<svg width="50" height="52" viewBox="0 0 50 52" fill="none" xmlns="http://www.w3.org/2000/svg">
<g clip-path="url(#clip0_401_589)">
<path d="M29.2238 50.589C27.9121 52.2409 25.2526 51.3358 25.2209 49.2267L24.7588 18.3774H45.5018C49.2588 18.3774 51.3542 22.7169 49.018 25.6594L29.2238 50.589Z" fill="url(#paint0_linear_401_589)"/>
<path d="M29.2238 50.589C27.9121 52.2409 25.2526 51.3358 25.2209 49.2267L24.7588 18.3774H45.5018C49.2588 18.3774 51.3542 22.7169 49.018 25.6594L29.2238 50.589Z" fill="url(#paint1_linear_401_589)" fill-opacity="0.2"/>
<path d="M20.7875 0.950065C22.0992 -0.701953 24.7589 0.203234 24.7905 2.31244L24.993 33.1616H4.50961C0.752387 33.1616 -1.34309 28.8221 0.993268 25.8796L20.7875 0.950065Z" fill="#3ECF8E"/>
</g>
<defs>
<linearGradient id="paint0_linear_401_589" x1="24.7588" y1="25.2175" x2="43.1944" y2="32.9494" gradientUnits="userSpaceOnUse">
<stop stop-color="#249361"/>
<stop offset="1" stop-color="#3ECF8E"/>
</linearGradient>
<linearGradient id="paint1_linear_401_589" x1="16.5854" y1="14.0267" x2="24.993" y2="29.8535" gradientUnits="userSpaceOnUse">
<stop/>
<stop offset="1" stop-opacity="0"/>
</linearGradient>
<clipPath id="clip0_401_589">
<rect width="50" height="51.8349" fill="white"/>
</clipPath>
</defs>
</svg>
